<svg width="102" height="51" viewBox="0 0 102 51" fill="none" xmlns="http://www.w3.org/2000/svg">
<path d="M4.5 18.2344C6.8125 19.0781 7.96875 20.5781 7.96875 22.7344V31.2656C7.96875 31.7344 8.04688 32.0625 8.20312 32.25C8.54688 32.6562 9.21875 32.875 10.2188 32.9062H10.7812C11.125 32.9062 11.4375 33.0312 11.7188 33.2812C12 33.5312 12.1406 33.8438 12.1406 34.2188C12.1406 34.5625 12 34.8594 11.7188 35.1094C11.4688 35.3906 11.1562 35.5312 10.7812 35.5312H10.3125C8.59375 35.5312 7.3125 35.25 6.46875 34.6875C5.4375 33.9375 4.9375 32.7031 4.96875 30.9844V22.875C4.96875 22.0625 4.82812 21.4688 4.54688 21.0938C3.98438 20.4375 2.9375 20 1.40625 19.7812C0.53125 19.625 0.09375 19.1094 0.09375 18.2344C0.09375 17.3594 0.53125 16.8438 1.40625 16.6875C2.28125 16.5312 2.95312 16.3438 3.42188 16.125C3.89062 15.9062 4.23438 15.6719 4.45312 15.4219C4.76562 15.0156 4.9375 14.4062 4.96875 13.5938V5.48438C4.96875 2.98438 6.04688 1.5 8.20312 1.03125C8.85938 0.90625 9.5625 0.84375 10.3125 0.84375H10.7812C11.125 0.84375 11.4375 0.984375 11.7188 1.26562C12 1.51562 12.1406 1.82812 12.1406 2.20312C12.1406 2.54688 12 2.85938 11.7188 3.14062C11.4688 3.39062 11.1562 3.51562 10.7812 3.51562H10.2188C8.84375 3.51562 8.09375 3.89062 7.96875 4.64062C7.9375 4.82812 7.9375 5 7.96875 5.15625V13.6875C7.96875 15.875 6.8125 17.3906 4.5 18.2344ZM16.7754 29.6484V5.16211C16.7754 4.92773 16.8926 4.80469 17.127 4.79297H25.4062C29.1445 4.79297 32.1504 5.91797 34.4238 8.16797C36.6973 10.4062 37.834 13.4824 37.834 17.3965C37.834 21.3105 36.6973 24.3926 34.4238 26.6426C32.1621 28.8809 29.1562 30 25.4062 30H17.127C16.8926 30 16.7754 29.8828 16.7754 29.6484ZM20.0098 27.4863H25.4062C28.1367 27.4863 30.3516 26.6309 32.0508 24.9199C33.75 23.1973 34.5996 20.6953 34.5996 17.4141C34.5996 14.1211 33.75 11.6191 32.0508 9.9082C30.3633 8.18555 28.1484 7.32422 25.4062 7.32422H20.0098V27.4863ZM43.248 29.6484V5.16211C43.248 4.91602 43.3652 4.79297 43.5996 4.79297H61.0371C61.2715 4.79297 61.3887 4.91602 61.3887 5.16211V6.95508C61.3887 7.20117 61.2715 7.32422 61.0371 7.32422H46.4824V15.9551H58.5059C58.752 15.9551 58.875 16.0781 58.875 16.3242V18.1172C58.875 18.3633 58.752 18.4863 58.5059 18.4863H46.4824V27.4863H61.0371C61.2715 27.4863 61.3887 27.6035 61.3887 27.8379V29.6484C61.3887 29.8828 61.2715 30 61.0371 30H43.5996C43.3652 30 43.248 29.8828 43.248 29.6484ZM63.9551 5.16211C63.9199 5.0918 63.9082 5.0332 63.9199 4.98633C63.9199 4.85742 64.0312 4.79297 64.2539 4.79297H66.8379C67.0723 4.79297 67.2539 4.91602 67.3828 5.16211L75.6621 25.8516L83.9414 5.16211C84.0586 4.92773 84.2402 4.80469 84.4863 4.79297H87.0703C87.3984 4.79297 87.498 4.91602 87.3691 5.16211L77.8242 28.9277C77.5312 29.6426 76.9922 30 76.207 30H75.1172C74.3203 30 73.7812 29.6426 73.5 28.9277L63.9551 5.16211ZM97.1953 18.2344C94.8828 17.3906 93.7266 15.875 93.7266 13.6875V5.15625C93.7266 4.6875 93.6328 4.35938 93.4453 4.17188C93.1016 3.76562 92.4453 3.54688 91.4766 3.51562H90.9141C90.5703 3.51562 90.2578 3.39062 89.9766 3.14062C89.6953 2.85938 89.5547 2.54688 89.5547 2.20312C89.5547 1.85938 89.6797 1.54688 89.9297 1.26562C90.2109 0.984375 90.5391 0.84375 90.9141 0.84375H91.3828C93.1016 0.84375 94.3672 1.14062 95.1797 1.73438C96.2109 2.48438 96.7266 3.73438 96.7266 5.48438V13.5938C96.7266 14.4062 96.8672 14.9688 97.1484 15.2812C97.7109 15.9375 98.7422 16.4062 100.242 16.6875C101.117 16.8438 101.555 17.3594 101.555 18.2344C101.555 19.1094 101.133 19.625 100.289 19.7812C99.4453 19.9062 98.7734 20.0781 98.2734 20.2969C97.8047 20.5156 97.4453 20.75 97.1953 21C96.8828 21.4062 96.7266 22.0312 96.7266 22.875V30.9844C96.7266 33.4844 95.6328 34.9375 93.4453 35.3438C92.7891 35.4688 92.1016 35.5312 91.3828 35.5312H90.9141C90.5703 35.5312 90.2578 35.4062 89.9766 35.1562C89.6953 34.9062 89.5547 34.5938 89.5547 34.2188C89.5547 33.875 89.6797 33.5625 89.9297 33.2812C90.2109 33.0312 90.5391 32.9062 90.9141 32.9062H91.4766C92.8516 32.9062 93.5859 32.5312 93.6797 31.7812C93.7109 31.5938 93.7266 31.4219 93.7266 31.2656V22.7344C93.7266 20.5781 94.8828 19.0781 97.1953 18.2344Z" fill="url(#paint0_linear_0_1)"/>
<path d="M23.3906 41.0625C24.8177 41.0625 25.9531 41.5417 26.7969 42.5C27.1719 42.9167 27.4479 43.3906 27.625 43.9219C27.8125 44.4531 27.9062 44.9896 27.9062 45.5312C27.9062 46.0729 27.8125 46.6094 27.625 47.1406C27.4479 47.6719 27.1719 48.1458 26.7969 48.5625C25.9531 49.5208 24.8177 50 23.3906 50H20.8125C20.6562 50 20.5208 49.9427 20.4062 49.8281C20.2917 49.7135 20.2344 49.5781 20.2344 49.4219V41.6562C20.2344 41.5 20.2917 41.3646 20.4062 41.25C20.5208 41.125 20.6562 41.0625 20.8125 41.0625H23.3906ZM23.25 48.9062C24.3125 48.9062 25.1667 48.5938 25.8125 47.9688C26.4479 47.3438 26.7656 46.5312 26.7656 45.5312C26.7656 44.5312 26.4479 43.7188 25.8125 43.0938C25.1667 42.4688 24.3125 42.1562 23.25 42.1562H21.4062V48.9062H23.25ZM35.5469 48.9062C35.6927 48.9062 35.8177 48.9635 35.9219 49.0781C36.0365 49.1823 36.0938 49.3125 36.0938 49.4688C36.0938 49.6146 36.0365 49.7396 35.9219 49.8438C35.8177 49.9479 35.6927 50 35.5469 50H30.4062C30.25 50 30.1146 49.9427 30 49.8281C29.8854 49.7135 29.8281 49.5781 29.8281 49.4219V41.6562C29.8281 41.5 29.8854 41.3646 30 41.25C30.1146 41.125 30.25 41.0625 30.4062 41.0625H35.5469C35.6927 41.0625 35.8177 41.1198 35.9219 41.2344C36.0365 41.3385 36.0938 41.4635 36.0938 41.6094C36.0938 41.7552 36.0365 41.8854 35.9219 42C35.8177 42.1042 35.6927 42.1562 35.5469 42.1562H31V44.9844H35.0781C35.224 44.9844 35.349 45.0365 35.4531 45.1406C35.5677 45.2448 35.625 45.375 35.625 45.5312C35.625 45.6771 35.5729 45.8073 35.4688 45.9219C35.3646 46.026 35.2344 46.0781 35.0781 46.0781H31V48.9062H35.5469ZM41.1875 48.9062L44.2031 41.4062C44.3073 41.1354 44.4688 41 44.6875 41C44.9167 41 45.0781 41.0573 45.1719 41.1719C45.276 41.2865 45.3281 41.4062 45.3281 41.5312C45.3281 41.6562 45.3125 41.75 45.2812 41.8125L42.125 49.4688C41.9375 49.8646 41.6771 50.0625 41.3438 50.0625H41.0469C40.6927 50.0625 40.4323 49.8646 40.2656 49.4688L37.0938 41.8125C37.0729 41.75 37.0625 41.6562 37.0625 41.5312C37.0625 41.4062 37.1094 41.2865 37.2031 41.1719C37.3073 41.0573 37.4375 41 37.5938 41C37.875 41 38.0729 41.1354 38.1875 41.4062L41.1875 48.9062ZM54.0781 41C54.2344 41 54.3698 41.0573 54.4844 41.1719C54.599 41.2865 54.6562 41.4271 54.6562 41.5938V49.2344C54.6562 49.4635 54.5729 49.6615 54.4062 49.8281C54.2396 49.9844 54.0417 50.0625 53.8125 50.0625H53.6562C53.375 50.0625 53.151 49.9479 52.9844 49.7188L48.0312 42.5625V49.4844C48.0312 49.6406 47.974 49.776 47.8594 49.8906C47.7448 50.0052 47.6042 50.0625 47.4375 50.0625C47.2812 50.0625 47.1458 50.0052 47.0312 49.8906C46.9167 49.776 46.8594 49.6406 46.8594 49.4844V41.8438C46.8594 41.6146 46.9375 41.4167 47.0938 41.25C47.2604 41.0833 47.4635 41 47.7031 41H47.8594C48.1302 41 48.3698 41.1302 48.5781 41.3906L53.5 48.5V41.5938C53.5 41.4375 53.5573 41.3021 53.6719 41.1875C53.7865 41.0625 53.9219 41 54.0781 41ZM57.8438 42.2188C58.6562 41.3646 59.7396 40.9375 61.0938 40.9375C62.4479 40.9375 63.5312 41.3646 64.3438 42.2188C65.1354 43.0625 65.5469 44.1667 65.5781 45.5312C65.5469 46.8854 65.1354 47.9896 64.3438 48.8438C63.5312 49.6979 62.4479 50.125 61.0938 50.125C59.7396 50.125 58.6562 49.6979 57.8438 48.8438C57.0312 47.9896 56.6146 46.8854 56.5938 45.5312C56.6146 44.1771 57.0312 43.0729 57.8438 42.2188ZM61.0938 49.0312C62.1354 49.0312 62.9531 48.6979 63.5469 48.0312C64.1302 47.3854 64.4219 46.5521 64.4219 45.5312C64.4219 44.5104 64.1302 43.6771 63.5469 43.0312C62.9427 42.3542 62.125 42.0208 61.0938 42.0312C60.0521 42.0312 59.2292 42.3646 58.625 43.0312C58.0417 43.6771 57.7552 44.5104 57.7656 45.5312C57.7656 46.5521 58.0521 47.3854 58.625 48.0312C59.2292 48.6979 60.0521 49.0312 61.0938 49.0312ZM70.6562 41.0625C72.0833 41.0625 73.2188 41.5417 74.0625 42.5C74.4375 42.9167 74.7135 43.3906 74.8906 43.9219C75.0781 44.4531 75.1719 44.9896 75.1719 45.5312C75.1719 46.0729 75.0781 46.6094 74.8906 47.1406C74.7135 47.6719 74.4375 48.1458 74.0625 48.5625C73.2188 49.5208 72.0833 50 70.6562 50H68.0781C67.9219 50 67.7865 49.9427 67.6719 49.8281C67.5573 49.7135 67.5 49.5781 67.5 49.4219V41.6562C67.5 41.5 67.5573 41.3646 67.6719 41.25C67.7865 41.125 67.9219 41.0625 68.0781 41.0625H70.6562ZM70.5156 48.9062C71.5781 48.9062 72.4323 48.5938 73.0781 47.9688C73.7135 47.3438 74.0312 46.5312 74.0312 45.5312C74.0312 44.5312 73.7135 43.7188 73.0781 43.0938C72.4323 42.4688 71.5781 42.1562 70.5156 42.1562H68.6719V48.9062H70.5156ZM82.8125 48.9062C82.9583 48.9062 83.0833 48.9635 83.1875 49.0781C83.3021 49.1823 83.3594 49.3125 83.3594 49.4688C83.3594 49.6146 83.3021 49.7396 83.1875 49.8438C83.0833 49.9479 82.9583 50 82.8125 50H77.6719C77.5156 50 77.3802 49.9427 77.2656 49.8281C77.151 49.7135 77.0938 49.5781 77.0938 49.4219V41.6562C77.0938 41.5 77.151 41.3646 77.2656 41.25C77.3802 41.125 77.5156 41.0625 77.6719 41.0625H82.8125C82.9583 41.0625 83.0833 41.1198 83.1875 41.2344C83.3021 41.3385 83.3594 41.4635 83.3594 41.6094C83.3594 41.7552 83.3021 41.8854 83.1875 42C83.0833 42.1042 82.9583 42.1562 82.8125 42.1562H78.2656V44.9844H82.3438C82.4896 44.9844 82.6146 45.0365 82.7188 45.1406C82.8333 45.2448 82.8906 45.375 82.8906 45.5312C82.8906 45.6771 82.8385 45.8073 82.7344 45.9219C82.6302 46.026 82.5 46.0781 82.3438 46.0781H78.2656V48.9062H82.8125Z" fill="url(#paint1_linear_0_1)"/>
<defs>
<linearGradient id="paint0_linear_0_1" x1="-1.82407" y1="-7.00001" x2="121.794" y2="58.896" gradientUnits="userSpaceOnUse">
<stop stop-color="#FF2D2D"/>
<stop offset="1" stop-color="#CC00FF" stop-opacity="0"/>
<stop offset="1" stop-color="#7509FF" stop-opacity="0.135015"/>
</linearGradient>
<linearGradient id="paint1_linear_0_1" x1="15.3333" y1="31.5" x2="105.25" y2="69.7869" gradientUnits="userSpaceOnUse">
<stop stop-color="#F51515"/>
<stop offset="0.505847" stop-color="#E70AFB" stop-opacity="0.44491"/>
<stop offset="1" stop-color="#FF00F5" stop-opacity="0"/>
</linearGradient>
</defs>
</svg>
